<?xml version="1.0" encoding="UTF-8" standalone="no"?>
<svg
   xmlns:dc="http://purl.org/dc/elements/1.1/"
   xmlns:cc="http://creativecommons.org/ns#"
   xmlns:rdf="http://www.w3.org/1999/02/22-rdf-syntax-ns#"
   xmlns:svg="http://www.w3.org/2000/svg"
   xmlns="http://www.w3.org/2000/svg"
   xmlns:sodipodi="http://sodipodi.sourceforge.net/DTD/sodipodi-0.dtd"
   xmlns:inkscape="http://www.inkscape.org/namespaces/inkscape"
   sodipodi:docname="exp-icon-rm-flat.svg"
   inkscape:version="1.0beta2 (2b71d25, 2019-12-03)"
   id="svg1217"
   version="1.1"
   viewBox="0 0 264.58333 264.58333"
   height="1000"
   width="1000">
  <defs
     id="defs1211" />
  <sodipodi:namedview
     inkscape:window-maximized="0"
     inkscape:window-y="35"
     inkscape:window-x="12"
     inkscape:window-height="1370"
     inkscape:window-width="2535"
     units="px"
     width="1000mm"
     inkscape:pagecheckerboard="true"
     showgrid="false"
     inkscape:document-rotation="0"
     inkscape:current-layer="layer1"
     inkscape:document-units="mm"
     inkscape:cy="484.4809"
     inkscape:cx="571.48734"
     inkscape:zoom="0.86670136"
     inkscape:pageshadow="2"
     inkscape:pageopacity="0"
     borderopacity="1.0"
     bordercolor="#666666"
     pagecolor="#333333"
     id="base">
    <sodipodi:guide
       inkscape:color="rgb(0,0,255)"
       inkscape:locked="false"
       inkscape:label=""
       id="guide2011"
       orientation="0,1"
       position="0,198.4375" />
    <sodipodi:guide
       inkscape:color="rgb(0,0,255)"
       inkscape:locked="false"
       inkscape:label=""
       id="guide2013"
       orientation="-1,0"
       position="198.4375,264.58333" />
    <sodipodi:guide
       inkscape:color="rgb(0,0,255)"
       inkscape:locked="false"
       inkscape:label=""
       id="guide2015"
       orientation="0,1"
       position="264.58333,66.145832" />
    <sodipodi:guide
       inkscape:color="rgb(0,0,255)"
       inkscape:locked="false"
       inkscape:label=""
       id="guide2017"
       orientation="-1,0"
       position="66.145832,0.00033333333" />
  </sodipodi:namedview>
  <metadata
     id="metadata1214">
    <rdf:RDF>
      <cc:Work
         rdf:about="">
        <dc:format>image/svg+xml</dc:format>
        <dc:type
           rdf:resource="http://purl.org/dc/dcmitype/StillImage" />
        <dc:title></dc:title>
      </cc:Work>
    </rdf:RDF>
  </metadata>
  <g
     id="layer1"
     inkscape:groupmode="layer"
     inkscape:label="Layer 1">
    <rect
       y="0"
       x="0"
       height="264.58334"
       width="264.58334"
       id="rect2008"
       style="fill:#ff4e21;fill-opacity:1;stroke:none;stroke-width:0.558042" />
    <path
       inkscape:connector-curvature="0"
       d="m 139.33989,85.725 a 7.1806,7.1806 0 0 0 -7.17242,7.180601 7.1806,7.1806 0 0 0 0,0.0082 v 73.592979 a 7.1806,7.1806 0 0 0 7.1806,7.1806 7.1806,7.1806 0 0 0 7.1806,-7.1806 7.1806,7.1806 0 0 0 0,-0.008 v -24.12662 h 17.05393 v -0.0238 c 0.12474,-0.0197 0.39965,-0.0349 0.71486,-0.0487 l 20.65825,28.36634 0.0238,0.0331 a 7.1806,7.1806 0 0 0 0.0565,0.0771 l 0.0397,0.0549 7.8e-4,-4e-4 a 7.1806,7.1806 0 0 0 5.73256,2.85674 7.1806,7.1806 0 0 0 7.1806,-7.1806 7.1806,7.1806 0 0 0 -1.1282,-3.86417 l 0.006,-0.004 -0.0896,-0.12233 -0.002,-0.003 a 7.1806,7.1806 0 0 0 -0.34828,-0.47683 l -16.27478,-22.2816 c 9.39561,-3.18249 19.09902,-10.4949 18.22966,-27.5346 -1.38495,-27.384411 -26.7612,-26.174402 -31.21021,-26.488989 v -0.0062 h -27.82417 a 7.1806,7.1806 0 0 0 -0.008,0 z m -67.239051,2.792456 a 5.9838337,5.9838337 0 0 0 -5.955006,5.983834 5.9838337,5.9838337 0 0 0 5.983834,5.98384 5.9838337,5.9838337 0 0 0 0.02883,0 h 40.661243 a 5.9838337,5.9838337 0 0 0 5.98383,-5.98384 5.9838337,5.9838337 0 0 0 -5.98383,-5.983834 h -0.0288 -40.661243 a 5.9838337,5.9838337 0 0 0 -0.02883,0 z m 95.439421,11.169431 c 3.0442,0.013 16.20462,0.541473 16.02117,14.117333 -0.22628,16.74546 -15.55286,14.77811 -20.07857,15.00439 H 146.52867 V 99.687277 h 20.54449 c 0.10608,0 0.26416,-10e-4 0.4671,-3.9e-4 z m -77.886842,9.973453 a 5.9838337,5.9838337 0 0 0 -5.955006,5.98383 5.9838337,5.9838337 0 0 0 5.983834,5.98384 5.9838337,5.9838337 0 0 0 0.02883,0 h 23.108664 a 5.9838337,5.9838337 0 0 0 5.98383,-5.98384 5.9838337,5.9838337 0 0 0 -5.98383,-5.98383 h -0.0288 -23.108664 a 5.9838337,5.9838337 0 0 0 -0.02883,0 z m 20.544492,21.34234 a 5.9838337,5.9838337 0 0 0 -5.955,5.98383 5.9838337,5.9838337 0 0 0 5.98383,5.98384 5.9838337,5.9838337 0 0 0 0.0288,0 h 2.56417 a 5.9838337,5.9838337 0 0 0 5.98383,-5.98384 5.9838337,5.9838337 0 0 0 -5.98383,-5.98383 h -0.0288 -2.56417 a 5.9838337,5.9838337 0 0 0 -0.0288,0 z"
       style="fill:#ffffff;fill-opacity:1;stroke-width:0.18507"
       id="path1305" />
  </g>
</svg>
