<?xml version="1.0" encoding="UTF-8"?><svg width="100" height="100" version="1.1" viewBox="0 0 128.45 128.45" xml:space="preserve" xmlns="http://www.w3.org/2000/svg"><path d="m48.494 99.339s-4.9087 2.8546 3.4934 3.8205c10.179 1.1612 15.381 0.99469 26.598-1.1283 0 0 2.9491 1.8492 7.0677 3.4508-25.146 10.777-56.91-0.62423-37.159-6.143" fill="#5382a1"/><path d="m45.422 85.276s-5.5056 4.0754 2.9027 4.9451c10.873 1.1218 19.46 1.2135 34.319-1.6477 0 0 2.0552 2.0836 5.2868 3.223-30.403 8.8902-64.266 0.7011-42.509-6.5204" fill="#5382a1"/><path d="m71.325 61.419c6.196 7.1335-1.6279 13.553-1.6279 13.553s15.733-8.1216 8.5073-18.292c-6.7482-9.4844-11.923-14.197 16.092-30.445 0 0-43.974 10.983-22.971 35.184" fill="#f8981d"/><g fill="#5382a1"><path d="m104.58 109.74s3.6325 2.9931-4.0006 5.3086c-14.515 4.397-60.411 5.7248-73.161 0.17519-4.5833-1.9939 4.0117-4.7609 6.7153-5.3415 2.8196-0.61143 4.4309-0.49752 4.4309-0.49752-5.0971-3.5906-32.945 7.0504-14.146 10.098 51.27 8.3145 93.46-3.744 80.161-9.7426"/><path d="m50.855 70.704s-23.346 5.5451-8.2674 7.5587c6.3666 0.85239 19.058 0.65955 30.88-0.33099 9.6616-0.815 19.363-2.5478 19.363-2.5478s-3.4068 1.459-5.8716 3.1419c-23.707 6.2351-69.506 3.3344-56.321-3.0433 11.15-5.39 20.216-4.7785 20.216-4.7785"/><path d="m92.735 94.114c24.1-12.523 12.957-24.558 5.1795-22.936-1.9063 0.39677-2.7563 0.74056-2.7563 0.74056s0.70767-1.1086 2.0593-1.5885c15.386-5.4093 27.22 15.954-4.9669 24.415 0 3.46e-4 0.37288-0.33306 0.48436-0.63116"/></g><path d="m78.205 0s13.347 13.351-12.659 33.882c-20.854 16.469-4.7553 25.859-0.0087 36.588-12.173-10.983-21.106-20.651-15.113-29.649 8.7964-13.209 33.165-19.613 27.78-40.82" fill="#f8981d"/><path d="m53.223 128.05c23.133 1.4808 58.656-0.82158 59.497-11.767 0 0-1.6172 4.1494-19.118 7.4448-19.744 3.7156-44.096 3.2818-58.539 0.90052 3.46e-4 -3.4e-4 2.9567 2.4471 18.16 3.422" fill="#5382a1"/></svg>