<?xml version="1.0" encoding="UTF-8"?>
<svg width="1e3" height="1e3" style="background-color:#ff4e21ff" version="1.1" viewBox="0 0 264.58 264.58" xmlns="http://www.w3.org/2000/svg"><path d="m139.34 85.725c-3.9625 0.0045-7.1724 3.2181-7.1724 7.1806v73.601c0 3.9657 3.2149 7.1806 7.1806 7.1806s7.1806-3.2149 7.1806-7.1806v-24.135h17.854c5.9263 8.2226 13.946 19.194 20.573 28.294l0.0238 0.0331c0.0187 0.0258 0.0375 0.0515 0.0565 0.0771l0.0397 0.0549 7.8e-4 -4e-4c1.3568 1.7989 3.4793 2.8567 5.7326 2.8567 3.9657 0 7.1806-3.2149 7.1806-7.1806 6e-5 -1.3693-0.39139-2.71-1.1282-3.8642l6e-3 -4e-3 -0.0896-0.12233-2e-3 -3e-3c-0.10951-0.16365-0.2257-0.32273-0.34828-0.47683l-16.275-22.282c9.3956-3.1825 19.099-10.495 18.23-27.535-1.385-27.384-26.761-26.174-31.21-26.489v-0.0062h-27.832zm-67.239 2.7925c-3.2935 0.01587-5.955 2.6903-5.955 5.9838-3e-6 3.3048 2.6791 5.9838 5.9838 5.9838 0.0096 2e-5 0.01922 2e-5 0.02883 0h40.661c3.3048 0 5.9838-2.6791 5.9838-5.9838 0-3.3048-2.679-5.9838-5.9838-5.9838h-40.69c-0.0096-2.3e-5 -0.01922-2.3e-5 -0.02883 0zm95.439 11.169c3.0442 0.013 16.205 0.54147 16.021 14.117-0.22628 16.745-15.553 14.778-20.079 15.004h-16.954v-29.121c6.9679-0.0023 14.109 0.0034 21.012-3.9e-4zm-77.887 9.9735c-3.2935 0.0159-5.955 2.6903-5.955 5.9838-3e-6 3.3048 2.6791 5.9838 5.9838 5.9838 0.0096 2e-5 0.01922 2e-5 0.02883 0h23.109c3.3048 0 5.9838-2.6791 5.9838-5.9838s-2.679-5.9838-5.9838-5.9838h-23.137c-0.0096-2e-5 -0.01922-2e-5 -0.02883 0zm20.544 21.342c-3.2935 0.0159-5.955 2.6903-5.955 5.9838 0 3.3048 2.679 5.9838 5.9838 5.9838 0.01 2e-5 0.0192 2e-5 0.0288 0h2.5642c3.3048 0 5.9838-2.6791 5.9838-5.9838s-2.679-5.9838-5.9838-5.9838h-2.593c-0.01-2e-5 -0.0192-2e-5 -0.0288 0z" fill="#fff"/></svg>
