<?xml version="1.0" encoding="UTF-8"?>
<svg width="100" height="100" version="1.1" viewBox="0 0 100 100" xml:space="preserve" xmlns="http://www.w3.org/2000/svg"><path class="st1" d="m31.413 91.313c37.735 0 58.384-31.293 58.384-58.384 0-0.88036 0-1.7607-0.04002-2.6411 4.0016-2.8812 7.483-6.5226 10.244-10.644-3.6815 1.6407-7.6431 2.7211-11.805 3.2413 4.2417-2.521 7.483-6.5627 9.0437-11.365-3.9616 2.361-8.3634 4.0416-13.045 4.962-3.7615-4.0016-9.0837-6.4826-14.966-6.4826-11.325 0-20.528 9.2037-20.528 20.528 0 1.6006 0.20008 3.1613 0.52021 4.6819-17.047-0.84034-32.173-9.0437-42.297-21.449-1.7607 3.0412-2.7611 6.5627-2.7611 10.324 0 7.1229 3.6415 13.405 9.1237 17.087-3.3614-0.12005-6.5226-1.0404-9.2838-2.561v0.28011c0 9.924 7.0829 18.247 16.447 20.128-1.7207 0.4802-3.5214 0.72029-5.4022 0.72029-1.3205 0-2.6011-0.12005-3.8416-0.36015 2.6011 8.1633 10.204 14.086 19.168 14.246-7.0429 5.5222-15.886 8.8036-25.49 8.8036-1.6407 0-3.2813-0.08003-4.882-0.28011 9.0437 5.7623 19.848 9.1637 31.413 9.1637"/></svg>
