<?xml version="1.0" encoding="UTF-8"?>
<svg width="100" height="100" version="1.1" viewBox="0 0 100 100" xml:space="preserve" xmlns="http://www.w3.org/2000/svg"><g transform="matrix(1.3333 0 0 -1.3333 0 62.987)"><circle transform="scale(1,-1)" cx="14.832" cy="15.869" r="3.2063" fill="#fff" stroke-width=".068136"/><path d="m68.239 42.972c-1.0989-2.6108-2.44-4.9634-3.9861-7.0677-6.8051 6.9841-16.303 11.336-26.802 11.336-20.652 0-37.452-16.802-37.452-37.45 0-10.824 4.6204-20.587 11.987-27.43l0.82013-0.72659c-1.3696 1.1168-1.5802 3.1281-0.47014 4.4989 1.1168 1.3714 3.13 1.5839 4.5002 0.47325 1.3739-1.1131 1.5832-3.1294 0.47081-4.5027-1.1083-1.3739-3.1251-1.5814-4.4972-0.47263l0.5581-0.49431c6.5159-5.4863 14.915-8.8003 24.083-8.8003 19.74 0 35.949 15.362 37.337 34.751 1.0276 9.4936-1.7765 21.548-6.5487 35.884" fill="#5fb832"/><path d="m68.079-6.6928c-9.2308-12.299-28.949-8.1474-41.591-8.7445 0 0-2.238-0.12451-4.4921-0.49555 0 0 0.85234 0.3636 1.9394 0.73836 8.8791 3.0705 13.075 3.6875 18.47 6.4588 10.137 5.1927 20.226 16.504 22.279 28.254-3.8584-11.301-15.594-21.027-26.279-24.977-7.3136-2.6988-20.54-5.3253-20.542-5.3264 0.0062-0.0094-0.5271 0.27687-0.53456 0.28306-8.9948 4.3762-9.2543 23.857 7.082 30.137 7.1625 2.7552 14.014 1.242 21.756 3.0849 8.2583 1.9635 17.823 8.1536 21.711 16.246 4.3583-12.927 9.5938-33.152 0.20123-45.659z" fill="#fff"/></g></svg>
