<?xml version="1.0" encoding="UTF-8"?>
<svg width="1e3" height="1e3" style="background-color:#cc3232" version="1.1" viewBox="0 0 1e3 1e3" xml:space="preserve" xmlns="http://www.w3.org/2000/svg"><path d="m333.04 412c-42.837 0-80.957 38.12-82.92 73.492-2.3329 41.992 31.048 82.922 71.131 82.922h37.334l21.221-56.199h-46.766c-27.904 0.39546-24.76-47.947 5.502-47.947h59.736l19.648-52.268zm99.035 0-59.342 156.41h54.23l31.441-83.707 31.832 83.707h51.875l60.129-156.41h-54.629l-30.652 80.172-30.652-80.172zm183.92 0-59.344 156.41h54.234l12.182-31.439h60.912l11.789 31.439h54.234l-59.34-156.41zm37.332 44.803 16.506 43.623h-33.012z" fill="#f9f9f9"/></svg>
