<?xml version="1.0" encoding="UTF-8"?>
<svg width="100" height="100" version="1.1" viewBox="0 0 100 100" xmlns="http://www.w3.org/2000/svg"><rect width="100" height="100" fill="#f7df1e"/><path d="m67.175 78.125c2.0143 3.2889 4.6349 5.7063 9.2698 5.7063 3.8937 0 6.381-1.946 6.381-4.6349 0-3.2222-2.5556-4.3635-6.8413-6.2381l-2.3492-1.0079c-6.781-2.8889-11.286-6.5079-11.286-14.159 0-7.0476 5.3698-12.413 13.762-12.413 5.9746 0 10.27 2.0794 13.365 7.5238l-7.3175 4.6984c-1.6111-2.8889-3.3492-4.027-6.0476-4.027-2.7524 0-4.4968 1.746-4.4968 4.027 0 2.819 1.746 3.9603 5.7778 5.7064l2.3492 1.0063c7.9841 3.4238 12.492 6.9143 12.492 14.762 0 8.4603-6.646 13.095-15.571 13.095-8.727 0-14.365-4.1587-17.124-9.6095zm-33.195 0.81429c1.4762 2.619 2.819 4.8333 6.0476 4.8333 3.0873 0 5.0349-1.2079 5.0349-5.9048v-31.952h9.3968v32.079c0 9.7302-5.7048 14.159-14.032 14.159-7.5238 0-11.881-3.8937-14.097-8.5833z"/></svg>
