<?xml version="1.0" encoding="UTF-8"?>
<svg width="100" height="100" version="1.1" xmlns="http://www.w3.org/2000/svg"><path d="m7.3906 0c-4.0814 0-7.3906 3.2089-7.3906 7.1641v85.672c0 3.9565 3.3093 7.1641 7.3906 7.1641h85.219c4.0812 0 7.3906-3.2076 7.3906-7.1641v-85.672c0-3.9552-3.3094-7.1641-7.3906-7.1641zm15.471 16.787c5.1672 0 8.3471 3.3699 8.4453 7.8008 0 4.3333-3.2778 7.8008-8.5449 7.8008h-0.09966c-5.0688 0-8.3457-3.4675-8.3457-7.8008 0-4.4308 3.3783-7.8008 8.5449-7.8008zm44.525 20.709c9.9373 0 17.389 6.4525 17.389 20.322v25.893h-15.102v-24.158c0-6.0704-2.1869-10.211-7.6523-10.211-4.1725 0-6.6581 2.7918-7.75 5.4883-0.39879 0.96473-0.49609 2.3145-0.49609 3.6641v25.217h-15.104s0.19822-40.919 0-45.156h15.104v6.4004c2.0056-3.0775 5.5879-7.459 13.611-7.459zm-52.178 1.0586h15.104v45.156h-15.104z" fill="#fff"/></svg>
