<?xml version="1.0" encoding="UTF-8"?>
<svg width="100" height="100" version="1.1" viewBox="0 0 100 100" xmlns="http://www.w3.org/2000/svg"><path d="m93.75 14.286v8.9285c0 7.8684-19.596 14.286-43.75 14.286s-43.75-6.4174-43.75-14.286v-8.9285c0-7.8684 19.596-14.286 43.75-14.286s43.75 6.4174 43.75 14.286zm0 20.089v20.089c0 7.8684-19.596 14.286-43.75 14.286s-43.75-6.4174-43.75-14.286v-20.089c9.3994 6.4732 26.603 9.4867 43.75 9.4867s34.35-3.0135 43.75-9.4867zm0 31.25v20.089c0 7.8684-19.596 14.286-43.75 14.286s-43.75-6.4174-43.75-14.286v-20.089c9.3994 6.4732 26.603 9.4867 43.75 9.4867s34.35-3.0135 43.75-9.4867z" fill="#0099e0"/></svg>
