<?xml version="1.0" encoding="UTF-8"?>
<svg width="100" height="100"  version="1.1" viewBox="0 0 100 100" xml:space="preserve" xmlns="http://www.w3.org/2000/svg"><g stroke-width=".060027"><path fill="#EA4335" d="m63.455 32.162h3.0494l8.6919-8.6919 0.42619-3.6917c-16.177-14.28-40.866-12.738-55.147 3.4396-3.9678 4.49-6.8431 9.8384-8.4158 15.625 0.96643-0.39618 2.0409-0.46221 3.0494-0.18008l17.384-2.8693s0.88239-1.4647 1.3446-1.3746c7.7315-8.4938 20.745-9.4843 29.677-2.257z"/><path fill="#4285F4" d="m87.58 38.843c-1.9989-7.3593-6.0987-13.974-11.801-19.029l-12.197 12.198c5.1503 4.2079 8.0856 10.553 7.9596 17.204v2.167c5.9967 0 10.859 4.8622 10.859 10.859 0 5.9967-4.8622 10.859-10.859 10.859h-21.718l-2.167 2.197v13.026l2.167 2.167h21.718c15.595 0.12005 28.339-12.426 28.459-28.021 0.07203-9.4723-4.5921-18.332-12.42-23.627z"/><path fill="#34A853" d="m28.075 90.352h21.718v-17.384h-21.718c-1.5487 0-3.0734-0.33615-4.484-0.97844l-3.0494 0.94843-8.7519 8.6919-0.76234 3.0494c4.9042 3.7097 10.895 5.7026 17.048 5.6726z"/><path fill="#FBBC05" d="m28.075 33.963c-15.601 0.090041-28.165 12.81-28.075 28.411 0.054024 8.7099 4.1178 16.91 11.027 22.216l12.594-12.594c-5.4624-2.4671-7.8935-8.902-5.4264-14.364s8.902-7.8936 14.364-5.4265c2.4071 1.0865 4.3339 3.0194 5.4264 5.4265l12.594-12.594c-5.3544-7.0112-13.686-11.111-22.504-11.075z"/>
</g></svg>
