<?xml version="1.0" encoding="UTF-8"?>
<svg id="Layer_2_1_" width="100" height="100" enable-background="new 0 0 841.9 595.3" version="1.1" viewBox="0 0 100 100" xml:space="preserve" xmlns="http://www.w3.org/2000/svg"><g fill="#61DAFB">
<path d="m100 50.037c0-6.6245-8.296-12.903-21.015-16.796 2.9352-12.964 1.6307-23.278-4.1174-26.58-1.3249-0.77456-2.874-1.1415-4.5658-1.1415v4.5455c0.93763 0 1.6918 0.18345 2.3237 0.52996 2.7721 1.5899 3.9747 7.6437 3.0371 15.43-0.22422 1.916-0.59111 3.934-1.0395 5.9927-3.9951-0.97839-8.3571-1.7326-12.943-2.2218-2.7517-3.7709-5.6054-7.1953-8.4794-10.192 6.6449-6.1761 12.882-9.5597 17.122-9.5597v-4.5455c-5.6054 0-12.943 3.9951-20.363 10.925-7.4195-6.8895-14.757-10.844-20.363-10.844v4.5455c4.2193 0 10.477 3.3632 17.122 9.4986-2.8536 2.9963-5.7073 6.4003-8.4183 10.171-4.6066 0.4892-8.9686 1.2434-12.964 2.2422-0.46881-2.0383-0.81533-4.0155-1.0599-5.9111-0.95801-7.7864 0.22422-13.84 2.9759-15.45 0.6115-0.3669 1.4064-0.52996 2.3441-0.52996v-4.5455c-1.7122 0-3.2613 0.3669-4.6066 1.1415-5.7277 3.3021-7.0118 13.596-4.0563 26.519-12.678 3.9136-20.934 10.171-20.934 16.775 0 6.6245 8.296 12.903 21.015 16.796-2.9352 12.964-1.6307 23.278 4.1174 26.58 1.3249 0.77456 2.874 1.1415 4.5862 1.1415 5.6054 0 12.943-3.9951 20.363-10.925 7.4195 6.8895 14.757 10.844 20.363 10.844 1.7122 0 3.2613-0.3669 4.6066-1.1415 5.7277-3.3021 7.0118-13.596 4.0563-26.519 12.638-3.8932 20.893-10.171 20.893-16.775zm-26.539-13.596c-0.75418 2.6294-1.6918 5.3404-2.7517 8.0514-0.83571-1.6307-1.7122-3.2613-2.6702-4.892-0.93763-1.6307-1.9364-3.2205-2.9352-4.7697 2.8944 0.42805 5.6869 0.95801 8.3571 1.6103zm-9.3355 21.708c-1.5899 2.7517-3.2205 5.3608-4.9124 7.7864-3.0371 0.26498-6.115 0.40766-9.2132 0.40766-3.0779 0-6.1557-0.14268-9.1724-0.38728-1.6918-2.4256-3.3428-5.0143-4.9327-7.7456-1.5491-2.6702-2.9556-5.3812-4.2397-8.1125 1.2638-2.7313 2.6906-5.4627 4.2193-8.1329 1.5899-2.7517 3.2205-5.3608 4.9124-7.7864 3.0371-0.26498 6.115-0.40766 9.2132-0.40766 3.0779 0 6.1557 0.14268 9.1724 0.38728 1.6918 2.4256 3.3428 5.0143 4.9327 7.7456 1.5491 2.6702 2.9556 5.3812 4.2397 8.1125-1.2841 2.7313-2.6906 5.4627-4.2193 8.1329zm6.5838-2.6498c1.1007 2.7313 2.0383 5.4627 2.8129 8.1125-2.6702 0.65226-5.4831 1.2026-8.3979 1.6307 0.99878-1.5695 1.9976-3.1798 2.9352-4.8308 0.93763-1.6307 1.8141-3.2817 2.6498-4.9124zm-20.669 21.749c-1.8956-1.9568-3.7913-4.1378-5.6665-6.5226 1.8345 0.08153 3.7097 0.14268 5.6054 0.14268 1.916 0 3.8117-0.04077 5.6665-0.14268-1.8345 2.3848-3.7301 4.5658-5.6054 6.5226zm-15.165-12.006c-2.8944-0.42805-5.6869-0.95801-8.3571-1.6103 0.75418-2.6294 1.6918-5.3404 2.7517-8.0514 0.83571 1.6307 1.7122 3.2613 2.6702 4.892 0.95801 1.6307 1.9364 3.2205 2.9352 4.7697zm15.063-42.417c1.8956 1.9568 3.7913 4.1378 5.6665 6.5226-1.8345-0.081533-3.7097-0.14268-5.6054-0.14268-1.916 0-3.8117 0.04077-5.6665 0.14268 1.8345-2.3848 3.7301-4.5658 5.6054-6.5226zm-15.084 12.006c-0.99878 1.5695-1.9976 3.1798-2.9352 4.8308-0.93763 1.6307-1.8141 3.2613-2.6498 4.892-1.1007-2.7313-2.0383-5.4627-2.8129-8.1125 2.6702-0.63188 5.4831-1.1822 8.3979-1.6103zm-18.447 25.52c-7.2157-3.0779-11.883-7.1137-11.883-10.314s4.6678-7.2564 11.883-10.314c1.753-0.75418 3.669-1.4268 5.6461-2.0587 1.1618 3.9951 2.6906 8.1533 4.5862 12.413-1.8753 4.2397-3.3836 8.3775-4.5251 12.352-2.0179-0.63188-3.934-1.3249-5.7073-2.0791zm10.966 29.128c-2.7721-1.5899-3.9747-7.6437-3.0371-15.43 0.22422-1.916 0.59111-3.934 1.0395-5.9927 3.9951 0.97839 8.3571 1.7326 12.943 2.2218 2.7517 3.7709 5.6054 7.1953 8.4794 10.192-6.6449 6.1761-12.882 9.5597-17.122 9.5597-0.91724-0.02038-1.6918-0.20383-2.3033-0.55035zm48.349-15.532c0.95801 7.7864-0.22422 13.84-2.9759 15.45-0.6115 0.3669-1.4064 0.52996-2.3441 0.52996-4.2193 0-10.477-3.3632-17.122-9.4986 2.8536-2.9963 5.7073-6.4003 8.4183-10.171 4.6066-0.4892 8.9686-1.2434 12.964-2.2422 0.46881 2.0587 0.83571 4.0359 1.0599 5.9315zm7.8475-13.596c-1.753 0.75418-3.669 1.4268-5.6461 2.0587-1.1618-3.9951-2.6906-8.1533-4.5862-12.413 1.8753-4.2397 3.3836-8.3775 4.5251-12.352 2.0179 0.63188 3.934 1.3249 5.7277 2.0791 7.2157 3.0779 11.883 7.1137 11.883 10.314-0.02038 3.2002-4.6881 7.2564-11.904 10.314z" stroke-width=".20383"/><polygon transform="matrix(.20383 0 0 .20383 -35.813 -10.399)" points=""/><circle cx="49.98" cy="50.037" r="9.3151" stroke-width=".20383"/><polygon transform="matrix(.20383 0 0 .20383 -35.813 -10.399)" points=""/>
</g></svg>
