<?xml version="1.0" encoding="UTF-8"?>
<svg width="100" height="100" version="1.1" viewBox="0 0 100 100" xmlns="http://www.w3.org/2000/svg"><path d="m0 50v50h100v-100h-100z" fill="#007acc"/><g  fill="#fff"><path d="m57.111 50.19 0.03175 4.0952h-13.016v36.984h-9.2064v-36.984h-13.016v-4.0159c0-2.2222 0.04762-4.0794 0.11111-4.127 0.04762-0.06349 7.9683-0.09524 17.571-0.07936l17.476 0.04762z"/><path d="m80.587 46.016c2.5397 0.63492 4.4762 1.7619 6.254 3.6032 0.92064 0.98413 2.2857 2.7778 2.3968 3.2064 0.03175 0.12698-4.3175 3.0476-6.9524 4.6825-0.09524 0.06349-0.47619-0.34921-0.90476-0.98413-1.2857-1.873-2.6349-2.6825-4.6984-2.8254-3.0317-0.20635-4.9841 1.381-4.9683 4.0317 0 0.77778 0.11111 1.2381 0.42857 1.873 0.66667 1.381 1.9048 2.2064 5.7937 3.8889 7.1587 3.0794 10.222 5.1111 12.127 8 2.127 3.2222 2.6032 8.3651 1.1587 12.19-1.5873 4.1587-5.5238 6.9841-11.063 7.9206-1.7143 0.30159-5.7778 0.25397-7.619-0.07936-4.0159-0.71429-7.8254-2.6984-10.175-5.3016-0.92064-1.0159-2.7143-3.6667-2.6032-3.8571 0.04762-0.06349 0.46032-0.31746 0.92064-0.5873 0.44444-0.25397 2.127-1.2222 3.7143-2.1429l2.873-1.6667 0.60318 0.88889c0.84127 1.2857 2.6825 3.0476 3.7937 3.6349 3.1905 1.6825 7.5714 1.4444 9.7302-0.49206 0.92064-0.84127 1.3016-1.7143 1.3016-3 0-1.1587-0.14286-1.6667-0.74603-2.5397-0.77778-1.1111-2.3651-2.0476-6.873-4-5.1587-2.2222-7.381-3.6032-9.4127-5.7937-1.1746-1.2698-2.2857-3.3016-2.746-5-0.38095-1.4127-0.47619-4.9524-0.1746-6.381 1.0635-4.9841 4.8254-8.4603 10.254-9.4921 1.7619-0.33333 5.8571-0.20635 7.5873 0.22222z"/></g></svg>
