<?xml version="1.0" encoding="UTF-8"?>
<svg width="100" height="100" version="1.0" xmlns="http://www.w3.org/2000/svg"><path d="m49.865 8.1794e-4c-4.0784 0.01895-7.9731 0.36678-11.4 0.97318-10.095 1.7835-11.928 5.5166-11.928 12.401v9.0923h23.857v3.0308h-32.81c-6.9335 0-13.005 4.1674-14.904 12.095-2.1904 9.0872-2.2876 14.758 0 24.246 1.6958 7.0628 5.7457 12.095 12.679 12.095h8.2025v-10.9c0-7.8743 6.8131-14.82 14.904-14.82h23.829c6.6332 0 11.928-5.4615 11.928-12.123v-22.717c0-6.4653-5.4543-11.322-11.928-12.401-4.0983-0.68221-8.3505-0.99213-12.429-0.97318zm-12.902 7.3128c2.4643 0 4.4766 2.0453 4.4766 4.5601-2e-6 2.5059-2.0124 4.5322-4.4766 4.5322-2.4731-1e-6 -4.4766-2.0264-4.4766-4.5322-1e-6 -2.5148 2.0036-4.5601 4.4766-4.5601z" fill="#306998"/><path d="m77.197 25.498v10.594c0 8.2132-6.9632 15.126-14.904 15.126h-23.829c-6.5272 0-11.928 5.5864-11.928 12.123v22.717c0 6.4654 5.6221 10.268 11.928 12.123 7.5517 2.2205 14.793 2.6218 23.829 0 6.0061-1.739 11.928-5.2386 11.928-12.123v-9.0923h-23.829v-3.0308h35.758c6.9335 0 9.5172-4.8362 11.928-12.095 2.4907-7.473 2.3848-14.66 0-24.246-1.7135-6.9023-4.9861-12.095-11.928-12.095zm-13.402 57.529c2.4731 3e-6 4.4766 2.0264 4.4766 4.5322-1e-6 2.5148-2.0036 4.5601-4.4766 4.5601-2.4643 0-4.4766-2.0453-4.4766-4.5601 2e-6 -2.5059 2.0124-4.5322 4.4766-4.5322z" fill="#ffd43b"/></svg>
