<?xml version="1.0" encoding="UTF-8"?>
<svg width="100" height="100" version="1.1" viewBox="0 0 100 100" xmlns="http://www.w3.org/2000/svg"><path d="m98.115 45.546-43.664-43.66c-2.5123-2.5147-6.5903-2.5147-9.1058 0l-9.0663 9.0675 11.5 11.501c2.6735-0.90271 5.7379-0.29746 7.868 1.8332 2.1412 2.1439 2.7421 5.2346 1.8168 7.9172l11.084 11.085c2.6816-0.92413 5.7756-0.32708 7.9168 1.8181 2.9936 2.9929 2.9936 7.8426 0 10.836-2.9941 2.9946-7.8436 2.9946-10.839 0-2.251-2.2528-2.8077-5.5603-1.6676-8.3339l-10.337-10.338-8.78e-4 27.203c0.72985 0.36131 1.4186 0.84355 2.0268 1.4491 2.9928 2.9925 2.9928 7.8413 0 10.839-2.9936 2.9925-7.8453 2.9925-10.836 0-2.9932-2.9973-2.9932-7.8461 0-10.839 0.73972-0.73844 1.5957-1.2974 2.509-1.672v-27.456c-0.91374-0.37306-1.7687-0.92782-2.5095-1.6722-2.2672-2.2656-2.8133-5.5932-1.6505-8.3775l-11.337-11.339-29.936 29.937c-2.5154 2.5166-2.5154 6.5948 0 9.1096l43.661 43.66c2.5137 2.5147 6.5903 2.5147 9.1075 0l43.459-43.454c2.5146-2.5159 2.5146-6.5953 0-9.1105" fill="#f05133" stroke-width=".87777"/><path d="m36.279 10.954 11.5 11.501c2.6735-0.90271 5.7379-0.29746 7.868 1.8332 2.1412 2.1439 2.7421 5.2346 1.8168 7.9172l11.084 11.085c2.6816-0.92413 5.7756-0.32708 7.9168 1.8181 2.9936 2.9929 2.9936 7.8426 0 10.836-2.9941 2.9946-7.8436 2.9946-10.839 0-2.251-2.2528-2.8077-5.5603-1.6676-8.3339l-10.337-10.338-8.78e-4 27.203c0.72985 0.36131 1.4186 0.84355 2.0268 1.4491 2.9928 2.9925 2.9928 7.8413 0 10.839-2.9936 2.9925-7.8453 2.9925-10.836 0-2.9932-2.9973-2.9932-7.8461 0-10.839 0.73972-0.73844 1.5957-1.2974 2.509-1.672v-27.456c-0.91374-0.37306-1.7687-0.92782-2.5095-1.6722-2.2672-2.2656-2.8133-5.5932-1.6505-8.3775l-11.337-11.339" fill="#fff" stroke-width=".87777"/></svg>
