<?xml version="1.0" encoding="UTF-8"?>
<svg width="100" height="100" version="1.1" viewBox="0 0 100 100" xml:space="preserve" xmlns="http://www.w3.org/2000/svg"><g fill="#f68d11"><path d="m55.83 37.974-11.674-3.8961v-16.883l11.688 3.4632-0.01427 17.316"/><path d="m58.874 20.658 11.688-3.4632-0.04069 16.872-11.648 3.9078v-17.316"/><path d="m68.182 15.367-10.894-3.3667-10.752 3.3667 10.767 2.8862 10.878-2.8862"/><path d="m85.267 37.974-11.674-3.8961v-16.883l11.688 3.4632-0.01427 17.316"/><path d="m88.312 20.658 11.688-3.4632-0.040693 16.872-11.648 3.9078v-17.316"/><path d="m97.619 15.367-10.894-3.3667-10.752 3.3667 10.767 2.8862 10.878-2.8862"/><path d="m11.688 45.333-11.688-3.4632v16.883l11.674 3.8961 0.0142-17.316"/><path d="m14.719 45.333 11.688-3.4632-0.040562 16.872-11.648 3.9075v-17.316"/><path d="m24.026 40.042-10.894-3.3667-10.751 3.3667 10.767 2.8862 10.878-2.8862"/><path d="m41.111 62.65-11.674-3.8961v-16.883l11.688 3.4632-0.0142 17.316"/><path d="m44.156 45.333 11.688-3.4632-0.040693 16.872-11.648 3.9075v-17.316"/><path d="m53.463 40.042-10.894-3.3667-10.751 3.3667 10.767 2.8862 10.878-2.8862"/><path d="m26.393 87.325-11.674-3.8961v-16.883l11.688 3.4632-0.0142 17.316"/><path d="m29.437 70.009 11.688-3.4632-0.040561 16.872-11.648 3.9074v-17.316"/><path d="m38.745 64.718-10.894-3.3667-10.751 3.3667 10.767 2.8862 10.878-2.8862"/></g></svg>
