<?xml version="1.0" encoding="UTF-8"?>
<svg width="100" height="100" version="1.1" xmlns="http://www.w3.org/2000/svg"><path d="m49.849 0c-1.3484 0-2.6594 0.27885-3.8192 0.93531l-36.711 21.2c-2.3757 1.3678-3.8192 3.9532-3.8192 6.7031v42.323c0 2.7483 1.4435 5.3308 3.8192 6.7028l9.5869 5.534c4.6578 2.2956 6.3757 2.2602 8.4957 2.2602 6.8963 0 10.834-4.1844 10.834-11.457v-41.777c0-0.59062-0.5113-1.0134-1.0912-1.0134h-4.5986c-0.58925 0-1.0912 0.42276-1.0912 1.0134v41.777c0 3.2237-3.3578 6.4656-8.8075 3.7412l-9.9766-5.8456c-0.3523-0.19204-0.62355-0.531-0.62355-0.93531v-42.323c0-0.40181 0.26813-0.80985 0.62355-1.0131l36.633-21.123c0.34294-0.19704 0.75136-0.19704 1.0912 0l36.633 21.123c0.34919 0.20951 0.62354 0.5991 0.62354 1.0131v42.323c0 0.40431-0.20277 0.81834-0.5456 1.0131l-36.711 21.123c-0.31489 0.18706-0.74825 0.18706-1.0912 0l-9.431-5.6119c-0.2806-0.16461-0.66407-0.15214-0.93531 0-2.6033 1.4758-3.0928 1.6474-5.5339 2.4942-0.60171 0.20951-1.5152 0.5355 0.31177 1.5588l12.315 7.2485c1.1723 0.6784 2.4786 1.0131 3.8192 1.0131 1.3593 0 2.6469-0.33472 3.8192-1.0131l36.711-21.123c2.3757-1.3818 3.8192-3.9545 3.8192-6.7028v-42.323c0-2.7498-1.4435-5.3295-3.8192-6.7031l-36.711-21.2c-1.1504-0.65647-2.4708-0.93531-3.8192-0.93531zm9.8207 30.242c-10.454 0-16.68 4.4488-16.68 11.847 0 8.026 6.1793 10.231 16.212 11.224 12.003 1.175 12.938 2.9374 12.938 5.3001 0 4.0982-3.2673 5.8456-10.99 5.8456-9.7023 0-11.835-2.4221-12.549-7.2485-0.08407-0.51754-0.48324-0.93531-1.0132-0.93531h-4.7545c-0.58613 0-1.0912 0.50406-1.0912 1.0912 0 6.178 3.3609 13.484 19.408 13.484 11.617 0 18.316-4.5598 18.316-12.549 0-7.92-5.4123-10.046-16.68-11.535-11.386-1.5065-12.471-2.2437-12.471-4.9102 0-2.2011 0.91972-5.1444 9.3531-5.1444 7.5324 0 10.316 1.6244 11.458 6.7033 0.09977 0.47738 0.52066 0.85723 1.0133 0.85723h4.7545c0.29306 0 0.57678-0.17958 0.77943-0.38983 0.19953-0.22447 0.33983-0.47738 0.31176-0.77917-0.73577-8.7468-6.569-12.861-18.316-12.861z" fill="#83cd29"/></svg>
