<?xml version="1.0" encoding="UTF-8"?>
<svg width="100" height="100" version="1.1" viewBox="0 0 100 100" xmlns="http://www.w3.org/2000/svg"><circle cx="50" cy="50" r="50" fill="#64bb40" stroke-width="1.0903"/><g fill="#fff"><path d="m83.935 52.032a15.496 15.496 0 0 1-5.6331 3.2389c-1.3993 0.47241-1.453 0.50462-1.8288 1.0092-0.56904 0.76229-1.2633 2.201-1.385 2.8702-0.18252 0.9985-0.12884 2.949 0.11452 4.155 0.48314 2.4086 1.02 3.9117 2.2404 6.2916 0.75156 1.4673 0.77661 1.5317 0.65135 1.9075-0.28273 0.86608-1.8753 1.6033-4.13 1.9111-2.6841 0.36862-5.4577 0.05726-7.2006-0.80882-0.74798-0.3722-1.4136-1.0307-1.4136-1.3993 0-0.07158 0.48314-1.0844 1.0701-2.2511 1.5389-3.0635 2.2547-5.5687 2.2761-7.9593 0.01074-1.3528-0.17178-2.1473-0.79092-3.4786-0.65851-1.4029-1.0951-1.7357-3.1064-2.3549-0.63703-0.19684-1.0414-0.39725-2.3048-1.1452-0.71935-0.42588-0.61198-0.54756 1.0414-1.113 1.9183-0.65851 4.3447-2.0149 6.6244-3.7113 1.2132-0.90187 4.1515-3.7864 5.1428-5.0497a26.233 26.233 0 0 0 2.294-3.425 2.0507 2.0507 0 0 1 0.48672-0.6764c0.13958-0.07516 4.606-0.12168 8.0094-0.11452 2.0399 0.0072 3.7005 0.02147 3.815 0.068 0.13242 0.0501 0.1682 0.2362 0.1682 0.87682 0 1.0522-0.80524 4.2051-1.3027 5.0963-1.6534 2.9669-2.4694 3.9904-4.835 6.059z"/><path d="m54.81 62.998c0.0072 2.2869 0.03221 2.5803 0.28631 3.6719 0.28631 1.224 1.4351 4.7527 1.954 5.9946 0.52609 1.2633 2.2654 4.8994 2.6627 5.5651 0.46883 0.78377 0.48314 1.0522 0.08231 1.6892-0.82671 1.3134-3.6719 2.3406-7.6086 2.7378-1.929 0.19684-3.0062 0.19326-4.8064-0.0072-1.8431-0.20399-2.9991-0.43662-4.2445-0.85176a25.732 25.732 0 0 0-1.3492-0.4223c-0.45451-0.11094-1.5389-0.89829-1.8431-1.3385-0.56188-0.81956-0.57977-0.76229 1.1774-4.3125 1.5962-3.2281 1.7858-3.6969 2.5875-6.4097 0.6764-2.2905 0.87324-3.1709 0.99492-4.5201 0.15389-1.6964 0.06442-4.3877-0.17536-5.4184a11.656 11.656 0 0 0-2.7843-5.064 7.1684 7.1684 0 0 0-2.838-1.9612c-3.0456-1.1452-6.2558-2.949-8.5642-4.8243a42.552 42.552 0 0 1-4.3555-4.2803c-2.4121-2.9203-4.5272-7.1004-5.2788-10.429-0.38294-1.6928-0.66209-3.7148-0.61914-4.47l0.02863-0.56904v0.0036h59.294l0.03579 0.48672c0.08947 1.2311-0.65135 4.9066-1.3385 6.6388-0.21115 0.53325-0.51893 1.3743-0.68356 1.8682-0.16463 0.49388-0.39009 1.0307-0.50104 1.1918a18.606 18.606 0 0 0-0.66566 1.1595c-2.0936 3.9081-6.1306 8.0452-10.389 10.643-1.4459 0.88397-3.8401 2.0435-5.1285 2.4837a5.4864 5.4864 0 0 0-1.3385 0.62988c-0.88397 0.77661-2.1008 2.0865-2.5195 2.7128a4.8851 4.8851 0 0 1-0.59409 0.78019c-0.22905 0.14315-1.088 2.2726-1.2955 3.2174-0.16463 0.75514-0.20042 1.36-0.19326 3.4035z"/><path d="m36.765 54.459c-0.63703 0.37936-1.2526 0.63703-2.0328 0.85176a8.5284 8.5284 0 0 0-1.3671 0.46525c-0.38294 0.24336-1.0343 1.3492-1.3993 2.362a8.3673 8.3673 0 0 0-0.46883 3.7972c0.136 1.1238 0.60125 3.2746 0.90187 4.1944 0.25052 0.76229 1.385 3.1816 1.9433 4.1443 0.46525 0.80166 0.48672 1.0701 0.10736 1.5246-0.6084 0.73008-1.8968 1.2741-3.6862 1.5568-1.5389 0.24336-2.8201 0.28273-4.0584 0.12526-2.2869-0.29346-3.9009-0.83745-4.4485-1.496-0.50462-0.60482-0.48672-0.69072 0.69072-3.0671 1.1488-2.3227 1.4602-3.1458 1.9147-5.0605 0.2362-0.9985 0.28273-1.4315 0.28273-2.702-0.0036-1.7787-0.16463-2.5267-0.7945-3.7005-0.78377-1.4673-1.1202-1.7322-2.8273-2.2081-2.0543-0.57619-4.8171-2.4408-7.333-4.9495-1.2633-1.2633-2.5088-3.2031-3.2854-5.1249-0.64419-1.5962-1.2204-4.9352-0.88755-5.15 0.08589-0.05368 2.8881-0.08589 5.7047-0.09305 2.8165-0.0072 5.651 0.01431 5.7906 0.068 0.10021 0.03937 0.27557 0.28989 0.39009 0.56546 0.40799 0.95913 2.9597 4.4127 4.155 5.6152 2.3048 2.3227 3.5896 3.3247 6.4169 5.0283 1.4208 0.85534 2.9454 1.5461 4.606 2.09 0.86608 0.28273 0.8124 0.48672-0.32568 1.1631z"/></g></svg>
